<!DOCTYPE svg PUBLIC "-//W3C//DTD SVG 1.1//EN" "http://www.w3.org/Graphics/SVG/1.1/DTD/svg11.dtd">
<!-- Uploaded to: SVG Repo, www.svgrepo.com, Transformed by: SVG Repo Mixer Tools -->
<svg fill="#afaf4f" height="64px" width="64px" version="1.1" id="Layer_1" xmlns="http://www.w3.org/2000/svg" xmlns:xlink="http://www.w3.org/1999/xlink" viewBox="0 0 512 512" xml:space="preserve">
<g id="SVGRepo_bgCarrier" stroke-width="0"/>
<g id="SVGRepo_tracerCarrier" stroke-linecap="round" stroke-linejoin="round"/>
<g id="SVGRepo_iconCarrier"> <g> <g> <g> <path d="M467.592,140.592c-24.487,0-44.408,19.921-44.408,44.408c0,12.43,5.14,23.676,13.398,31.745l-77.398,62.622 l-84.14-126.641c20.239-7.206,34.769-26.548,34.769-49.228c0-28.808-23.437-52.245-52.245-52.245 c-28.808,0-52.245,23.437-52.245,52.245c0,22.675,14.524,42.013,34.754,49.223L155.95,279.366l-79.147-64.037 c7.443-7.944,12.013-18.61,12.013-30.329c0-24.487-19.921-44.408-44.408-44.408S0,160.513,0,185 c0,22.076,16.194,40.434,37.326,43.837l37.53,223.14c0.846,5.031,5.203,8.77,10.304,8.77h344.816 c5.102,0,9.458-3.738,10.304-8.77l37.638-223.767C497.439,223.542,512,205.932,512,185 C512,160.513,492.079,140.592,467.592,140.592z M226.22,103.498c0-17.285,14.062-31.347,31.347-31.347 c17.285,0,31.347,14.062,31.347,31.347c0,17.285-14.062,31.347-31.347,31.347C240.283,134.845,226.22,120.783,226.22,103.498z M20.898,185c0-12.964,10.546-23.51,23.51-23.51c12.964,0,23.51,10.546,23.51,23.51s-10.546,23.51-23.51,23.51 C31.444,208.51,20.898,197.964,20.898,185z M421.137,439.849H93.998l-25.26-150.267l92.447,74.597 c2.287,1.847,5.247,2.63,8.152,2.184c2.905-0.447,5.488-2.104,7.115-4.553l81.126-122.135l81.157,122.181 c1.63,2.453,4.218,4.103,7.129,4.547c2.916,0.445,5.875-0.362,8.161-2.218l92.437-74.999L421.137,439.849z M451.725,257.941 l-101.944,82.772l-83.499-125.708c-1.937-2.915-5.204-4.668-8.704-4.668c-3.5,0-6.768,1.752-8.704,4.668l-83.485,125.683 L63.491,258.437l-5.251-31.246l93.489,75.641c2.286,1.852,5.244,2.65,8.155,2.207c2.908-0.446,5.493-2.096,7.12-4.547 l90.553-136.319l90.572,136.319c1.628,2.45,4.213,4.1,7.12,4.546c2.907,0.443,5.868-0.355,8.155-2.206l92.643-74.956 c0.233,0.063,0.465,0.128,0.699,0.186L451.725,257.941z M467.592,208.51c-12.964,0-23.51-10.546-23.51-23.51 s10.546-23.51,23.51-23.51c12.964,0,23.51,10.546,23.51,23.51S480.556,208.51,467.592,208.51z"/> <path d="M266.145,301.002c-1.958-2.773-5.141-4.423-8.536-4.423c-3.395,0-6.578,1.65-8.536,4.423l-37.629,53.302 c-2.551,3.613-2.551,8.44,0,12.052l37.629,53.302c1.958,2.773,5.141,4.423,8.536,4.423c3.395,0,6.578-1.65,8.536-4.423 l37.629-53.302c2.551-3.613,2.551-8.44,0-12.052L266.145,301.002z M257.609,395.515l-24.838-35.185l24.838-35.185l24.838,35.185 L257.609,395.515z"/> </g> </g> </g> </g>
</svg>